<svg id="_166yukdashimavelogistika-az-hor" data-name="166yukdashimavelogistika-az-hor" xmlns="http://www.w3.org/2000/svg" width="287.936" height="227.853" viewBox="0 0 287.936 227.853">
  <path id="Path_62403" data-name="Path 62403" d="M350.658,55.052,316.6,89.111l24.484,24.482,4.687-4.69,1.753-1.757,1.753,1.757,58.318,58.32,1.755,1.755-1.755,1.755-58.316,58.319-1.751,1.754-1.755-1.754-5.986-5.987L315.3,247.55l35.353,35.355L464.578,168.977Z" transform="translate(-176.642 -55.052)" fill="#040505"/>
  <path id="Path_62404" data-name="Path 62404" d="M353.252,132.02l-2.2,2.2-8.851,8.853,42.287,42.289L342.2,227.655l7.559,7.556,3.5,3.5L406.6,185.366Z" transform="translate(-182.369 -71.442)" fill="#ffb610"/>
  <path id="Path_62405" data-name="Path 62405" d="M148.325,227.244v-62.3h-9.2V151.818h23.249v75.426Z" transform="translate(-139.128 -75.657)" fill="#ffb610"/>
  <path id="Path_62406" data-name="Path 62406" d="M206.517,227.341a29.554,29.554,0,0,1-10.846-1.935,25.684,25.684,0,0,1-8.526-5.358,24.774,24.774,0,0,1-7.592-18.015,35.412,35.412,0,0,1,1.547-10.307,32.058,32.058,0,0,1,4.238-8.983l19.525-30.925H221.4l-16.536,24.695a16.109,16.109,0,0,1,4.446-.62,22.838,22.838,0,0,1,9.3,1.909,23.576,23.576,0,0,1,7.594,5.321,24.947,24.947,0,0,1,5.115,8.109,28.073,28.073,0,0,1,1.855,10.388A26.04,26.04,0,0,1,231.159,212a24.324,24.324,0,0,1-5.579,8.113,25.619,25.619,0,0,1-8.47,5.322,29.015,29.015,0,0,1-10.594,1.9m-.306-12.7a12.493,12.493,0,0,0,5.058-1.035,13.286,13.286,0,0,0,7.029-7.076,13.238,13.238,0,0,0,1.033-5.217,12.99,12.99,0,0,0-1.033-5.117,12.656,12.656,0,0,0-2.84-4.182,13.912,13.912,0,0,0-4.19-2.792,12.585,12.585,0,0,0-5.058-1.034,12.206,12.206,0,0,0-5.01,1.034,12.822,12.822,0,0,0-4.087,2.844,13.786,13.786,0,0,0-2.785,4.182,13.282,13.282,0,0,0,0,10.281,13.644,13.644,0,0,0,2.785,4.237A12.857,12.857,0,0,0,201.2,213.6a12.118,12.118,0,0,0,5.01,1.035" transform="translate(-147.736 -75.657)" fill="#ffb610"/>
  <path id="Path_62407" data-name="Path 62407" d="M281.487,227.341a29.586,29.586,0,0,1-10.856-1.935,25.656,25.656,0,0,1-8.518-5.358,24.757,24.757,0,0,1-7.6-18.015,35.181,35.181,0,0,1,1.551-10.307,32.034,32.034,0,0,1,4.235-8.983l19.523-30.925h16.537l-16.537,24.695a16.083,16.083,0,0,1,4.448-.62,22.8,22.8,0,0,1,9.3,1.909,23.574,23.574,0,0,1,7.6,5.321,24.95,24.95,0,0,1,5.117,8.109,28.025,28.025,0,0,1,1.857,10.388A26.041,26.041,0,0,1,306.123,212a24.364,24.364,0,0,1-5.576,8.113,25.629,25.629,0,0,1-8.474,5.322,28.981,28.981,0,0,1-10.585,1.9m-.312-12.7a12.516,12.516,0,0,0,5.061-1.035,13.436,13.436,0,0,0,4.184-2.839,13.306,13.306,0,0,0,3.876-9.453,12.966,12.966,0,0,0-1.037-5.117,12.549,12.549,0,0,0-2.839-4.182,13.975,13.975,0,0,0-4.184-2.792,12.608,12.608,0,0,0-5.061-1.034,12.244,12.244,0,0,0-5.014,1.034,12.945,12.945,0,0,0-4.081,2.844,13.776,13.776,0,0,0-2.786,4.182,13.245,13.245,0,0,0,0,10.281,13.634,13.634,0,0,0,2.786,4.237,12.98,12.98,0,0,0,4.081,2.839,12.156,12.156,0,0,0,5.014,1.035" transform="translate(-163.699 -75.657)" fill="#ffb610"/>
  <g id="Group_9476" data-name="Group 9476" transform="translate(9.294 158.357)">
    <path id="Path_62408" data-name="Path 62408" d="M154.8,269.783V265.34l-3.867-6.114h2.5l2.483,4.177,2.434-4.177h2.456l-3.88,6.128v4.429Z" transform="translate(-150.936 -256.886)" fill="#ffb610"/>
    <path id="Path_62409" data-name="Path 62409" d="M164.807,258.593h2.131v5.718a11.89,11.89,0,0,0,.079,1.764,1.712,1.712,0,0,0,.652,1.04,2.269,2.269,0,0,0,1.408.392,2.153,2.153,0,0,0,1.368-.37,1.466,1.466,0,0,0,.555-.911,11.933,11.933,0,0,0,.093-1.793v-5.84h2.131v5.545a14.215,14.215,0,0,1-.172,2.686,2.961,2.961,0,0,1-.638,1.325,3.215,3.215,0,0,1-1.242.86,5.387,5.387,0,0,1-2.03.321,5.861,5.861,0,0,1-2.294-.349,3.276,3.276,0,0,1-1.235-.908,2.915,2.915,0,0,1-.6-1.17,12.808,12.808,0,0,1-.209-2.678Zm1.814-.6v-1.735h1.735v1.735Zm3.1,0v-1.735h1.743v1.735Z" transform="translate(-153.89 -256.253)" fill="#ffb610"/>
    <path id="Path_62410" data-name="Path 62410" d="M178.393,269.783V259.226h2.131v4.688l4.306-4.688H187.7l-3.975,4.112,4.191,6.445h-2.759l-2.9-4.955-1.728,1.765v3.19Z" transform="translate(-156.783 -256.886)" fill="#ffb610"/>
    <path id="Path_62411" data-name="Path 62411" d="M191.878,259.226h3.9a7.634,7.634,0,0,1,2.009.2,3.541,3.541,0,0,1,1.591.973,4.615,4.615,0,0,1,1.008,1.71,7.812,7.812,0,0,1,.346,2.495,6.925,6.925,0,0,1-.324,2.247,4.635,4.635,0,0,1-1.13,1.865,3.733,3.733,0,0,1-1.5.843,6.444,6.444,0,0,1-1.887.224h-4.01Zm2.131,1.786V268H195.6a5.776,5.776,0,0,0,1.289-.1,1.957,1.957,0,0,0,.86-.44,2.236,2.236,0,0,0,.558-1.018,6.885,6.885,0,0,0,.216-1.933,6.308,6.308,0,0,0-.216-1.879,2.418,2.418,0,0,0-.6-1.022,2.029,2.029,0,0,0-.987-.5,9.7,9.7,0,0,0-1.75-.1Z" transform="translate(-159.654 -256.886)" fill="#ffb610"/>
    <path id="Path_62412" data-name="Path 62412" d="M214.646,269.783h-2.318l-.922-2.4h-4.219l-.871,2.4h-2.261l4.112-10.557h2.254Zm-3.924-4.177-1.454-3.917-1.426,3.917Z" transform="translate(-162.247 -256.886)" fill="#ffb610"/>
    <path id="Path_62413" data-name="Path 62413" d="M218.263,266.3l2.073-.2a2.525,2.525,0,0,0,.76,1.533,2.294,2.294,0,0,0,1.544.49,2.376,2.376,0,0,0,1.552-.435,1.3,1.3,0,0,0,.522-1.018.965.965,0,0,0-.22-.638,1.755,1.755,0,0,0-.767-.456q-.374-.131-1.706-.46a5.8,5.8,0,0,1-2.4-1.044,2.747,2.747,0,0,1-.973-2.125,2.717,2.717,0,0,1,.457-1.508,2.86,2.86,0,0,1,1.318-1.069A5.263,5.263,0,0,1,222.5,259a4.458,4.458,0,0,1,2.992.871,3.078,3.078,0,0,1,1.055,2.325l-2.131.094a1.808,1.808,0,0,0-.587-1.17,2.145,2.145,0,0,0-1.351-.357,2.424,2.424,0,0,0-1.454.382.767.767,0,0,0-.339.655.81.81,0,0,0,.317.641,5.578,5.578,0,0,0,1.959.705,10.322,10.322,0,0,1,2.3.76,2.958,2.958,0,0,1,1.167,1.073,3.324,3.324,0,0,1-.083,3.38,3.023,3.023,0,0,1-1.426,1.177,5.984,5.984,0,0,1-2.3.385,4.57,4.57,0,0,1-3.074-.925A4.02,4.02,0,0,1,218.263,266.3Zm2.426,6.336v-.849a12.723,12.723,0,0,0,1.362.079,1.586,1.586,0,0,0,.95-.231.527.527,0,0,0,.238-.446.533.533,0,0,0-.223-.425,1.1,1.1,0,0,0-.692-.179,3.287,3.287,0,0,0-.943.143l.187-.712a3.672,3.672,0,0,1,1.21-.2,2.064,2.064,0,0,1,1.368.4,1.219,1.219,0,0,1,.468.964,1.238,1.238,0,0,1-.519,1.03,3.214,3.214,0,0,1-2,.54A6.37,6.37,0,0,1,220.689,272.635Z" transform="translate(-165.273 -256.838)" fill="#ffb610"/>
    <path id="Path_62414" data-name="Path 62414" d="M231.364,269.783V259.226H233.5v10.557Z" transform="translate(-168.062 -256.886)" fill="#ffb610"/>
    <path id="Path_62415" data-name="Path 62415" d="M236.615,269.783V259.226h3.19l1.915,7.2,1.894-7.2h3.2v10.557h-1.98v-8.31l-2.1,8.31h-2.053l-2.088-8.31v8.31Z" transform="translate(-169.181 -256.886)" fill="#ffb610"/>
    <path id="Path_62416" data-name="Path 62416" d="M261.489,269.783h-2.319l-.922-2.4h-4.219l-.871,2.4H250.9l4.112-10.557h2.253Zm-3.925-4.177-1.454-3.917-1.425,3.917Z" transform="translate(-172.222 -256.886)" fill="#ffb610"/>
    <path id="Path_62417" data-name="Path 62417" d="M154.728,293.2l-3.773-10.557h2.312l2.671,7.814,2.585-7.814h2.261L157,293.2Z" transform="translate(-150.94 -261.873)" fill="#ffb610"/>
    <path id="Path_62418" data-name="Path 62418" d="M173.752,287.931a5.162,5.162,0,0,1-2.254,4.738,4.658,4.658,0,0,1-2.534.663,4.165,4.165,0,0,1-2.722-.864,5.537,5.537,0,0,1-1.966-4.537,7.693,7.693,0,0,1,.079-.929H171.5a3.494,3.494,0,0,0-.741-1.923,2.282,2.282,0,0,0-1.836-.821,2.186,2.186,0,0,0-2.261,1.735l-2.11-.482a3.7,3.7,0,0,1,1.556-2.341,4.814,4.814,0,0,1,2.751-.756,4.5,4.5,0,0,1,3.68,1.606A5.989,5.989,0,0,1,173.752,287.931Zm-2.254.842H166.53a3.489,3.489,0,0,0,.849,2.081,2.169,2.169,0,0,0,1.584.67,2.3,2.3,0,0,0,1.678-.652A3.542,3.542,0,0,0,171.5,288.773Z" transform="translate(-153.777 -261.824)" fill="#ffb610"/>
    <path id="Path_62419" data-name="Path 62419" d="M183.707,293.223V282.754h2.132v8.691h5.3v1.779Z" transform="translate(-157.914 -261.896)" fill="#ffb610"/>
    <path id="Path_62420" data-name="Path 62420" d="M194.531,287.938a6.723,6.723,0,0,1,.482-2.707,4.981,4.981,0,0,1,.983-1.447,4.12,4.12,0,0,1,1.365-.95,5.792,5.792,0,0,1,2.275-.418,4.954,4.954,0,0,1,3.734,1.447,6.466,6.466,0,0,1,.01,8.026,4.919,4.919,0,0,1-3.716,1.443,4.97,4.97,0,0,1-3.744-1.436A5.453,5.453,0,0,1,194.531,287.938Zm2.2-.072a3.956,3.956,0,0,0,.828,2.719,2.849,2.849,0,0,0,4.194.007,4.037,4.037,0,0,0,.818-2.755,3.973,3.973,0,0,0-.8-2.707,2.949,2.949,0,0,0-4.238.011A3.988,3.988,0,0,0,196.727,287.865Z" transform="translate(-160.219 -261.824)" fill="#ffb610"/>
    <path id="Path_62421" data-name="Path 62421" d="M214.465,289.269v-1.779h4.594V291.7a5.769,5.769,0,0,1-1.94,1.141,7.078,7.078,0,0,1-2.574.493,5.765,5.765,0,0,1-2.888-.7,4.408,4.408,0,0,1-1.85-1.987,6.4,6.4,0,0,1-.62-2.811,6.074,6.074,0,0,1,.692-2.931,4.649,4.649,0,0,1,2.023-1.965,5.456,5.456,0,0,1,2.528-.526,5.044,5.044,0,0,1,3.071.824,3.721,3.721,0,0,1,1.422,2.279l-2.116.4a2.237,2.237,0,0,0-.84-1.228,2.531,2.531,0,0,0-1.537-.45,2.888,2.888,0,0,0-2.221.885,3.731,3.731,0,0,0-.825,2.628,4.135,4.135,0,0,0,.835,2.819,2.789,2.789,0,0,0,2.189.939,3.662,3.662,0,0,0,1.344-.262,4.613,4.613,0,0,0,1.156-.637v-1.34Z" transform="translate(-163.34 -261.824)" fill="#ffb610"/>
    <path id="Path_62422" data-name="Path 62422" d="M224.146,292.518V281.961h2.131v10.557Zm.079-11.161v-1.916h1.987v1.916Z" transform="translate(-166.525 -261.191)" fill="#ffb610"/>
    <path id="Path_62423" data-name="Path 62423" d="M228.747,289.717l2.074-.2a2.529,2.529,0,0,0,.76,1.533,2.3,2.3,0,0,0,1.545.49,2.376,2.376,0,0,0,1.552-.436,1.3,1.3,0,0,0,.521-1.018.968.968,0,0,0-.219-.638,1.754,1.754,0,0,0-.767-.456q-.374-.13-1.706-.46a5.8,5.8,0,0,1-2.405-1.044,2.746,2.746,0,0,1-.972-2.124,2.717,2.717,0,0,1,.457-1.509,2.863,2.863,0,0,1,1.318-1.069,5.27,5.27,0,0,1,2.078-.368,4.455,4.455,0,0,1,2.992.871,3.073,3.073,0,0,1,1.055,2.326l-2.131.094a1.8,1.8,0,0,0-.586-1.17,2.145,2.145,0,0,0-1.351-.357,2.432,2.432,0,0,0-1.454.383.766.766,0,0,0-.338.655.811.811,0,0,0,.316.641,5.592,5.592,0,0,0,1.959.705,10.332,10.332,0,0,1,2.3.76,2.963,2.963,0,0,1,1.167,1.073,3.327,3.327,0,0,1-.083,3.38,3.016,3.016,0,0,1-1.426,1.177,5.98,5.98,0,0,1-2.3.385,4.574,4.574,0,0,1-3.075-.925A4.027,4.027,0,0,1,228.747,289.717Z" transform="translate(-167.505 -261.824)" fill="#ffb610"/>
    <path id="Path_62424" data-name="Path 62424" d="M244.1,293.2v-8.77h-3.132v-1.787h8.388v1.787h-3.125v8.77Z" transform="translate(-170.108 -261.873)" fill="#ffb610"/>
    <path id="Path_62425" data-name="Path 62425" d="M253.294,292.518V281.961h2.131v10.557Zm.079-11.161v-1.916h1.987v1.916Z" transform="translate(-172.732 -261.191)" fill="#ffb610"/>
    <path id="Path_62426" data-name="Path 62426" d="M258.619,293.2V282.643h2.131v4.688l4.306-4.688h2.866l-3.975,4.112,4.191,6.445H265.38l-2.9-4.954-1.728,1.764v3.19Z" transform="translate(-173.866 -261.873)" fill="#ffb610"/>
    <path id="Path_62427" data-name="Path 62427" d="M281.342,293.2h-2.318l-.922-2.4h-4.219l-.871,2.4H270.75l4.112-10.557h2.254Zm-3.924-4.177-1.454-3.917-1.426,3.917Z" transform="translate(-176.449 -261.873)" fill="#ffb610"/>
  </g>
</svg>