<svg xmlns="http://www.w3.org/2000/svg" data-name="Layer 1" viewBox="0 0 128 160" x="0px" y="0px" fill="#2e2e2e">
<path d="M64,36A18,18,0,1,0,46,18,18,18,0,0,0,64,36ZM64,4A14,14,0,1,1,50,18,14,14,0,0,1,64,4Z"/>
<path d="M6.21,32.86A13.33,13.33,0,0,0,9,33.75V36a2,2,0,0,0,4,0V33.91a11.49,11.49,0,0,0,3-.76c4.06-1.66,6.11-5.54,4.88-9.21-1.27-3.84-4.63-5.12-7.87-6V8.19a6.9,6.9,0,0,1,5.08,4.3,2,2,0,1,0,3.84-1.12,10.9,10.9,0,0,0-8.25-7.12L13,4.14V2A2,2,0,0,0,9,2V4.15A9.42,9.42,0,0,0,2.31,8a7.83,7.83,0,0,0,0,8.58C3.86,19,6.44,20.13,9,20.9v8.72a9.2,9.2,0,0,1-1.16-.42,7.2,7.2,0,0,1-4-4A2,2,0,1,0,.12,26.57,11.05,11.05,0,0,0,6.21,32.86ZM13,22.07c2.15.7,3.53,1.48,4.07,3.13.64,1.93-.9,3.55-2.61,4.25a7.27,7.27,0,0,1-1.47.42ZM5.68,14.41a3.84,3.84,0,0,1-.06-4.2A5.26,5.26,0,0,1,9,8.21V16.7A6.26,6.26,0,0,1,5.68,14.41Z"/>
<circle cx="11" cy="44" r="2"/><path d="M112.21,32.86a13.33,13.33,0,0,0,2.79.89V36a2,2,0,0,0,4,0V33.91a11.49,11.49,0,0,0,3-.76c4.06-1.66,6.11-5.54,4.88-9.21-1.27-3.84-4.63-5.12-7.87-6V8.19a6.9,6.9,0,0,1,5.08,4.3,2,2,0,1,0,3.84-1.12,10.9,10.9,0,0,0-8.25-7.12l-.67-.1V2a2,2,0,0,0-4,0V4.15A9.42,9.42,0,0,0,108.31,8a7.83,7.83,0,0,0,0,8.58c1.57,2.49,4.15,3.59,6.71,4.37v8.72a9.15,9.15,0,0,1-1.16-.42,7.2,7.2,0,0,1-4-4,2,2,0,0,0-3.77,1.34A11.06,11.06,0,0,0,112.21,32.86ZM119,22.07c2.15.7,3.53,1.48,4.07,3.13.64,1.93-.9,3.55-2.61,4.25a7.32,7.32,0,0,1-1.47.42Zm-7.32-7.66a3.84,3.84,0,0,1-.06-4.2,5.25,5.25,0,0,1,3.38-2V16.7A6.26,6.26,0,0,1,111.68,14.41Z"/>
<circle cx="117" cy="44" r="2"/>
<path d="M68.38,39.56h0A21.94,21.94,0,0,1,59,39.42L56.09,57.78A3.94,3.94,0,0,0,58,61.93l3.44,2.39.16.1a5.22,5.22,0,0,0,4.79,0L70,61.93a3.79,3.79,0,0,0,1.85-4.22Z"/><path d="M2,128a2,2,0,0,0,2-2v-3c0-13.23,10-24,22.22-24h5.54C44,99,54,109.76,54,123v3a2,2,0,0,0,4,0v-3c0-14-9.62-25.55-22.16-27.65A15,15,0,0,0,34,67.87V64.34c0-13.09,8-23.83,19.14-27.22a22.09,22.09,0,0,1-3.93-2.85C37.85,39,30,50.51,30,64.34v2.71c-.33,0-.66-.05-1-.05a15,15,0,0,0-6.84,28.34C9.62,97.43,0,109,0,123v3A2,2,0,0,0,2,128ZM18,82A11,11,0,1,1,29,93,11,11,0,0,1,18,82Z"/>
<path d="M105.84,95.34A15,15,0,0,0,99,67c-.34,0-.67,0-1,.05V64.34C98,50.51,90.15,39,78.79,34.28a22.14,22.14,0,0,1-3.93,2.85C86,40.51,94,51.25,94,64.34v3.53a15,15,0,0,0-1.84,27.46C79.62,97.43,70,109,70,123v3a2,2,0,0,0,4,0v-3c0-13.23,10-24,22.22-24h5.54C114,99,124,109.76,124,123v3a2,2,0,0,0,4,0v-3C128,109,118.38,97.43,105.84,95.34ZM99,93a11,11,0,1,1,11-11A11,11,0,0,1,99,93Z"/>
<path d="M117.84,92a7,7,0,0,0,6.62-5.48l3.41-13.08,0-.13a5.37,5.37,0,0,0-1.07-4.45A5.25,5.25,0,0,0,122.75,67H110.62a18.9,18.9,0,0,1,4.51,25Z"/><path d="M17.38,67H12.79a7.69,7.69,0,0,0-7,5.14L.32,85.41c0,.06,0,.13-.07.19a5,5,0,0,0,.66,4.5,4.92,4.92,0,0,0,4,1.9h7.94a18.89,18.89,0,0,1,4.51-25Z"/>
<path d="M87.38,67H40.62a18.9,18.9,0,0,1,4.51,25H82.87a18.89,18.89,0,0,1,4.51-25Z"/></svg>