<svg xmlns="http://www.w3.org/2000/svg" data-name="Layer 1" fill="rgb(233,107,86)"  viewBox="0 0 64 80" x="0px" y="0px"><path d="M62.33,16.4a5.81,5.81,0,0,0-4.47-2.09H56.38V11.14a3.63,3.63,0,0,0-3.62-3.62H48.61L5,7.62A4.59,4.59,0,0,0,1.63,9.08,4.67,4.67,0,0,0,.41,12.5l0,31.17a5.09,5.09,0,0,0,5,5.93H40.65a10.75,10.75,0,0,0,20.78-3.87,10.66,10.66,0,0,0-2.12-6.39L63.59,21.2A5.83,5.83,0,0,0,62.33,16.4ZM3.83,11.12A1.59,1.59,0,0,1,5,10.62l44.29-.1h3.47a.62.62,0,0,1,.62.62v3.17H13.54A5.79,5.79,0,0,0,7.89,18.7L3.39,33.58l0-21.13v-.12A1.58,1.58,0,0,1,3.83,11.12ZM50.68,53.48a7.76,7.76,0,1,1,7.75-7.75A7.77,7.77,0,0,1,50.68,53.48Zm10-32.9L56.8,36.9A10.62,10.62,0,0,0,50.68,35,10.76,10.76,0,0,0,39.92,45.73c0,.29,0,.58,0,.87H5.41a2.11,2.11,0,0,1-1.65-.8,2.19,2.19,0,0,1-.46-1.26h.08V44l7.41-24.47a2.81,2.81,0,0,1,2.75-2.18H57.86a2.84,2.84,0,0,1,2.8,3.27Z"/><path d="M28.85,22.41H16.71a1.5,1.5,0,0,0,0,3H28.85a1.5,1.5,0,0,0,0-3Z"/><path d="M26.82,29.64H14.68a1.5,1.5,0,0,0,0,3H26.82a1.5,1.5,0,0,0,0-3Z"/><path d="M53.69,45.63h-1.8V42.69a1.5,1.5,0,0,0-3,0v4.44a1.5,1.5,0,0,0,1.5,1.5h3.3a1.5,1.5,0,0,0,0-3Z"/></svg>