<svg xmlns="http://www.w3.org/2000/svg" xmlns:xlink="http://www.w3.org/1999/xlink" version="1.1" x="0px" y="0px"   fill="rgb(233,107,86)" viewBox="0 0 100 125" enable-background="new 0 0 100 100" xml:space="preserve"><g><circle cx="74.939" cy="45.176" r="5.66"/><path d="M65.621,72.211c-3.959,0-7.315,2.541-8.553,6.078h17.105C72.938,74.752,69.58,72.211,65.621,72.211z"/><circle cx="65.621" cy="65.135" r="5.66"/><path d="M46.541,72.211c-3.959,0-7.315,2.541-8.554,6.078h17.106C53.857,74.752,50.5,72.211,46.541,72.211z"/><circle cx="46.541" cy="65.135" r="5.66"/><circle cx="27.459" cy="65.136" r="5.66"/><path d="M27.461,72.211c-3.96,0-7.316,2.541-8.554,6.078h17.105C34.776,74.752,31.42,72.211,27.461,72.211z"/><path d="M74.941,52.25c-3.961,0-7.322,2.545-8.557,6.086c3.332,0.078,6.014,2.746,6.119,6.07H84.01v-3.087   C84.01,56.311,79.949,52.25,74.941,52.25z"/><polygon points="20.018,64.423 18.919,64.423 18.919,24.64 75.422,24.64 75.422,37.819 78.35,37.819 78.35,21.711 15.99,21.711    15.99,67.352 20.018,67.352  "/><rect x="34.219" y="64.406" width="5.563" height="2.945"/><rect x="53.301" y="64.406" width="5.563" height="2.945"/><rect x="25.281" y="43.767" width="5" height="5.833"/><rect x="33.281" y="39.516" width="5" height="10.083"/><rect x="41.281" y="45.964" width="5" height="3.635"/><rect x="49.281" y="29.433" width="5" height="20.167"/></g><rect x="25.281" y="50.917" width="3.718" height="1.338"/><rect x="30.337" y="50.917" width="3.718" height="1.338"/><rect x="35.394" y="50.917" width="3.718" height="1.338"/><rect x="40.45" y="50.917" width="3.718" height="1.338"/><rect x="45.506" y="50.917" width="3.718" height="1.338"/><rect x="50.563" y="50.917" width="3.719" height="1.338"/></svg>